<svg width="20" height="20" viewBox="0 0 20 20" fill="none" xmlns="http://www.w3.org/2000/svg">
<path d="M17.567 5.83382C17.423 5.58434 17.2168 5.37643 16.9685 5.23038C16.7202 5.08433 16.4383 5.00513 16.1503 5.00049H5.48366L5.00033 3.11716C4.95149 2.93535 4.84254 2.77544 4.69122 2.66347C4.5399 2.55149 4.35513 2.49404 4.16699 2.50049H2.50033C2.27931 2.50049 2.06735 2.58829 1.91107 2.74457C1.75479 2.90085 1.66699 3.11281 1.66699 3.33382C1.66699 3.55484 1.75479 3.7668 1.91107 3.92308C2.06735 4.07936 2.27931 4.16716 2.50033 4.16716H3.53366L5.83366 12.7172C5.88249 12.899 5.99144 13.0589 6.14276 13.1708C6.29408 13.2828 6.47886 13.3403 6.66699 13.3338H14.167C14.3209 13.3334 14.4716 13.2903 14.6025 13.2094C14.7335 13.1285 14.8394 13.0129 14.9087 12.8755L17.642 7.40882C17.7605 7.1605 17.8156 6.88671 17.8025 6.61189C17.7894 6.33707 17.7085 6.06976 17.567 5.83382ZM13.6503 11.6672H7.30033L5.94199 6.66716H16.1503L13.6503 11.6672Z" fill="white"/>
<path d="M6.25 17.5C6.94036 17.5 7.5 16.9404 7.5 16.25C7.5 15.5596 6.94036 15 6.25 15C5.55964 15 5 15.5596 5 16.25C5 16.9404 5.55964 17.5 6.25 17.5Z" fill="white"/>
<path d="M14.584 17.5C15.2743 17.5 15.834 16.9404 15.834 16.25C15.834 15.5596 15.2743 15 14.584 15C13.8936 15 13.334 15.5596 13.334 16.25C13.334 16.9404 13.8936 17.5 14.584 17.5Z" fill="white"/>
</svg>
