<svg width="24" height="24" viewBox="0 0 24 24" fill="none" xmlns="http://www.w3.org/2000/svg">
<path d="M20 7.42853C20 6.82232 19.7592 6.24094 19.3306 5.81228C18.9019 5.38363 18.3205 5.14281 17.7143 5.14281H17.1429V4.58745C17.1429 4.27995 16.9065 4.01602 16.599 4.00066C16.5217 3.99694 16.4445 4.00894 16.372 4.03594C16.2995 4.06294 16.2333 4.10438 16.1773 4.15774C16.1213 4.2111 16.0767 4.27528 16.0462 4.34638C16.0158 4.41748 16 4.49403 16 4.57138V5.14281H8.00001V4.58745C8.00001 4.27995 7.76358 4.01602 7.45608 4.00066C7.37882 3.99694 7.3016 4.00894 7.22912 4.03594C7.15663 4.06294 7.09038 4.10438 7.03438 4.15774C6.97838 4.2111 6.9338 4.27528 6.90333 4.34638C6.87287 4.41748 6.85716 4.49403 6.85715 4.57138V5.14281H6.28572C5.67951 5.14281 5.09813 5.38363 4.66947 5.81228C4.24082 6.24094 4 6.82232 4 7.42853V7.85711C4 7.895 4.01505 7.93133 4.04184 7.95812C4.06863 7.98491 4.10497 7.99997 4.14286 7.99997H19.8572C19.8951 7.99997 19.9314 7.98491 19.9582 7.95812C19.985 7.93133 20 7.895 20 7.85711V7.42853Z" fill="#130E22"/>
<path d="M4 17.714C4 18.3202 4.24082 18.9016 4.66947 19.3303C5.09813 19.7589 5.67951 19.9998 6.28572 19.9998H17.7143C18.3205 19.9998 18.9019 19.7589 19.3306 19.3303C19.7592 18.9016 20 18.3202 20 17.714V9.24972C20 9.22131 19.9888 9.19405 19.9687 9.17396C19.9486 9.15387 19.9213 9.14258 19.8929 9.14258H4.10714C4.07873 9.14258 4.05147 9.15387 4.03138 9.17396C4.01129 9.19405 4 9.22131 4 9.24972V17.714ZM16.2857 10.2854C16.4553 10.2854 16.621 10.3357 16.762 10.4299C16.9029 10.5241 17.0128 10.6579 17.0776 10.8146C17.1425 10.9712 17.1595 11.1435 17.1264 11.3098C17.0934 11.4761 17.0117 11.6288 16.8918 11.7487C16.772 11.8686 16.6192 11.9502 16.453 11.9833C16.2867 12.0163 16.1144 11.9994 15.9577 11.9345C15.8011 11.8696 15.6672 11.7597 15.5731 11.6188C15.4789 11.4778 15.4286 11.3121 15.4286 11.1426C15.4286 10.9153 15.5189 10.6972 15.6797 10.5365C15.8404 10.3757 16.0584 10.2854 16.2857 10.2854ZM16.2857 13.1426C16.4553 13.1426 16.621 13.1929 16.762 13.287C16.9029 13.3812 17.0128 13.5151 17.0776 13.6717C17.1425 13.8283 17.1595 14.0007 17.1264 14.167C17.0934 14.3332 17.0117 14.486 16.8918 14.6058C16.772 14.7257 16.6192 14.8073 16.453 14.8404C16.2867 14.8735 16.1144 14.8565 15.9577 14.7916C15.8011 14.7268 15.6672 14.6169 15.5731 14.4759C15.4789 14.335 15.4286 14.1693 15.4286 13.9997C15.4286 13.7724 15.5189 13.5544 15.6797 13.3936C15.8404 13.2329 16.0584 13.1426 16.2857 13.1426ZM13.4286 10.2854C13.5981 10.2854 13.7638 10.3357 13.9048 10.4299C14.0458 10.5241 14.1556 10.6579 14.2205 10.8146C14.2854 10.9712 14.3023 11.1435 14.2693 11.3098C14.2362 11.4761 14.1546 11.6288 14.0347 11.7487C13.9148 11.8686 13.7621 11.9502 13.5958 11.9833C13.4295 12.0163 13.2572 11.9994 13.1006 11.9345C12.944 11.8696 12.8101 11.7597 12.7159 11.6188C12.6217 11.4778 12.5715 11.3121 12.5715 11.1426C12.5715 10.9153 12.6618 10.6972 12.8225 10.5365C12.9833 10.3757 13.2013 10.2854 13.4286 10.2854ZM13.4286 13.1426C13.5981 13.1426 13.7638 13.1929 13.9048 13.287C14.0458 13.3812 14.1556 13.5151 14.2205 13.6717C14.2854 13.8283 14.3023 14.0007 14.2693 14.167C14.2362 14.3332 14.1546 14.486 14.0347 14.6058C13.9148 14.7257 13.7621 14.8073 13.5958 14.8404C13.4295 14.8735 13.2572 14.8565 13.1006 14.7916C12.944 14.7268 12.8101 14.6169 12.7159 14.4759C12.6217 14.335 12.5715 14.1693 12.5715 13.9997C12.5715 13.7724 12.6618 13.5544 12.8225 13.3936C12.9833 13.2329 13.2013 13.1426 13.4286 13.1426ZM13.4286 15.9997C13.5981 15.9997 13.7638 16.05 13.9048 16.1442C14.0458 16.2384 14.1556 16.3722 14.2205 16.5289C14.2854 16.6855 14.3023 16.8578 14.2693 17.0241C14.2362 17.1904 14.1546 17.3431 14.0347 17.463C13.9148 17.5829 13.7621 17.6645 13.5958 17.6976C13.4295 17.7306 13.2572 17.7137 13.1006 17.6488C12.944 17.5839 12.8101 17.474 12.7159 17.3331C12.6217 17.1921 12.5715 17.0264 12.5715 16.8569C12.5715 16.6296 12.6618 16.4115 12.8225 16.2508C12.9833 16.09 13.2013 15.9997 13.4286 15.9997ZM10.5714 13.1426C10.741 13.1426 10.9067 13.1929 11.0477 13.287C11.1886 13.3812 11.2985 13.5151 11.3633 13.6717C11.4282 13.8283 11.4452 14.0007 11.4121 14.167C11.379 14.3332 11.2974 14.486 11.1775 14.6058C11.0577 14.7257 10.9049 14.8073 10.7387 14.8404C10.5724 14.8735 10.4001 14.8565 10.2434 14.7916C10.0868 14.7268 9.95294 14.6169 9.85876 14.4759C9.76457 14.335 9.7143 14.1693 9.7143 13.9997C9.7143 13.7724 9.80461 13.5544 9.96535 13.3936C10.1261 13.2329 10.3441 13.1426 10.5714 13.1426ZM10.5714 15.9997C10.741 15.9997 10.9067 16.05 11.0477 16.1442C11.1886 16.2384 11.2985 16.3722 11.3633 16.5289C11.4282 16.6855 11.4452 16.8578 11.4121 17.0241C11.379 17.1904 11.2974 17.3431 11.1775 17.463C11.0577 17.5829 10.9049 17.6645 10.7387 17.6976C10.5724 17.7306 10.4001 17.7137 10.2434 17.6488C10.0868 17.5839 9.95294 17.474 9.85876 17.3331C9.76457 17.1921 9.7143 17.0264 9.7143 16.8569C9.7143 16.6296 9.80461 16.4115 9.96535 16.2508C10.1261 16.09 10.3441 15.9997 10.5714 15.9997ZM7.7143 13.1426C7.88382 13.1426 8.04954 13.1929 8.1905 13.287C8.33146 13.3812 8.44132 13.5151 8.5062 13.6717C8.57107 13.8283 8.58805 14.0007 8.55497 14.167C8.5219 14.3332 8.44026 14.486 8.32039 14.6058C8.20052 14.7257 8.04779 14.8073 7.88152 14.8404C7.71525 14.8735 7.5429 14.8565 7.38628 14.7916C7.22966 14.7268 7.09579 14.6169 7.00161 14.4759C6.90742 14.335 6.85715 14.1693 6.85715 13.9997C6.85715 13.7724 6.94746 13.5544 7.1082 13.3936C7.26895 13.2329 7.48697 13.1426 7.7143 13.1426ZM7.7143 15.9997C7.88382 15.9997 8.04954 16.05 8.1905 16.1442C8.33146 16.2384 8.44132 16.3722 8.5062 16.5289C8.57107 16.6855 8.58805 16.8578 8.55497 17.0241C8.5219 17.1904 8.44026 17.3431 8.32039 17.463C8.20052 17.5829 8.04779 17.6645 7.88152 17.6976C7.71525 17.7306 7.5429 17.7137 7.38628 17.6488C7.22966 17.5839 7.09579 17.474 7.00161 17.3331C6.90742 17.1921 6.85715 17.0264 6.85715 16.8569C6.85715 16.6296 6.94746 16.4115 7.1082 16.2508C7.26895 16.09 7.48697 15.9997 7.7143 15.9997Z" fill="#130E22"/>
</svg>
