<svg width="16" height="16" viewBox="0 0 16 16" fill="none" xmlns="http://www.w3.org/2000/svg">
<path d="M11.3306 7.99949C11.3309 8.15526 11.2689 8.30622 11.1554 8.42616L7.34785 12.4262C7.21859 12.5623 7.03285 12.6479 6.83149 12.6642C6.63013 12.6804 6.42963 12.626 6.27412 12.5128C6.11861 12.3997 6.02081 12.2371 6.00225 12.0608C5.98368 11.8845 6.04587 11.709 6.17512 11.5728L9.58669 7.99949L6.29697 4.42616C6.23371 4.35796 6.18647 4.2795 6.15797 4.19527C6.12946 4.11105 6.12025 4.02272 6.13087 3.93537C6.14148 3.84802 6.17171 3.76336 6.21982 3.68627C6.26793 3.60918 6.33297 3.54117 6.41119 3.48616C6.48949 3.4251 6.58135 3.37886 6.68101 3.35033C6.78067 3.32181 6.88599 3.3116 6.99037 3.32037C7.09474 3.32913 7.19593 3.35667 7.28758 3.40125C7.37923 3.44584 7.45938 3.50652 7.523 3.57949L11.2011 7.57949C11.2967 7.70288 11.3423 7.85076 11.3306 7.99949V7.99949Z" fill="#7E50FE"/>
</svg>
