<svg width="24" height="24" viewBox="0 0 24 24" fill="none" xmlns="http://www.w3.org/2000/svg">
<path d="M15.2119 14.1207L14.9513 14.4677L15.2581 14.7746L18.4198 17.9362C18.4736 18.0004 18.5022 18.0823 18.4999 18.1663C18.4974 18.254 18.4615 18.3374 18.3995 18.3995C18.3374 18.4615 18.254 18.4974 18.1663 18.4999C18.0823 18.5022 18.0004 18.4736 17.9362 18.4198L14.7746 15.2581L14.4677 14.9513L14.1207 15.2119C13.1903 15.9109 12.0577 16.2882 10.894 16.2869H10.8934C7.91996 16.2869 5.5 13.8669 5.5 10.8934C5.5 7.91996 7.91996 5.5 10.8934 5.5C13.8669 5.5 16.2869 7.91996 16.2869 10.8934V10.894C16.2882 12.0577 15.9109 13.1903 15.2119 14.1207ZM6.18384 10.8934L6.18384 10.894C6.18534 12.1425 6.68194 13.3394 7.56473 14.2222C8.44751 15.1049 9.6444 15.6015 10.8928 15.603H10.8934C11.8249 15.603 12.7355 15.3268 13.51 14.8093C14.2844 14.2918 14.8881 13.5563 15.2445 12.6957C15.601 11.8352 15.6943 10.8882 15.5125 9.97464C15.3308 9.06107 14.8823 8.2219 14.2236 7.56325C13.565 6.9046 12.7258 6.45605 11.8122 6.27433C10.8987 6.09261 9.95172 6.18588 9.09115 6.54234C8.23059 6.8988 7.49505 7.50244 6.97755 8.27693C6.46005 9.05142 6.18384 9.96197 6.18384 10.8934Z" fill="white" stroke="white"/>
</svg>
