<svg width="24" height="24" viewBox="0 0 24 24" fill="none" xmlns="http://www.w3.org/2000/svg">
<path d="M20.0196 15.8085C19.949 15.7192 19.8795 15.6299 19.8114 15.5438C18.8747 14.3558 18.308 13.6388 18.308 10.2759C18.308 8.53482 17.9108 7.10625 17.1278 6.03482C16.5504 5.2433 15.7699 4.64286 14.7413 4.19911C14.728 4.19139 14.7162 4.18126 14.7064 4.1692C14.3364 2.87009 13.3239 2 12.1819 2C11.04 2 10.0279 2.87009 9.65792 4.16786C9.64804 4.17948 9.63639 4.18928 9.62343 4.19688C7.2229 5.23304 6.05627 7.22098 6.05627 10.2746C6.05627 13.6388 5.49041 14.3558 4.55285 15.5424C4.48472 15.6286 4.41532 15.7161 4.34464 15.8071C4.16207 16.038 4.04639 16.3189 4.01131 16.6165C3.97622 16.9141 4.02319 17.2161 4.14666 17.4866C4.40936 18.067 4.96926 18.4272 5.60835 18.4272H18.7602C19.3963 18.4272 19.9524 18.0674 20.2159 17.4897C20.3399 17.2191 20.3873 16.917 20.3525 16.619C20.3178 16.321 20.2022 16.0397 20.0196 15.8085Z" fill="white"/>
<path d="M12.1816 22.0003C12.7969 21.9998 13.4005 21.8246 13.9285 21.4935C14.4566 21.1624 14.8893 20.6876 15.1808 20.1195C15.1945 20.0922 15.2013 20.0618 15.2005 20.031C15.1996 20.0002 15.1912 19.9701 15.1761 19.9438C15.1609 19.9174 15.1395 19.8956 15.1139 19.8805C15.0883 19.8653 15.0594 19.8574 15.03 19.8574H9.33399C9.30458 19.8573 9.27565 19.8652 9.25 19.8803C9.22436 19.8954 9.20288 19.9172 9.18766 19.9436C9.17244 19.97 9.164 20 9.16316 20.0309C9.16231 20.0617 9.16909 20.0922 9.18284 20.1195C9.4743 20.6875 9.90694 21.1623 10.4349 21.4934C10.9628 21.8245 11.5664 21.9997 12.1816 22.0003Z" fill="white"/>
</svg>
