<svg width="24" height="24" viewBox="0 0 24 24" fill="none" xmlns="http://www.w3.org/2000/svg">
<path d="M21.7526 10.4801L19.5171 9.81344C19.3626 9.27431 19.15 8.7535 18.8832 8.2601L19.9776 6.21343C20.0186 6.13618 20.0337 6.04776 20.0204 5.96129C20.0072 5.87482 19.9664 5.79492 19.9042 5.73344L18.3093 4.13344C18.2477 4.07121 18.1677 4.03048 18.0812 4.01727C17.9946 4.00406 17.9061 4.01908 17.8288 4.0601L15.7935 5.14677C15.2947 4.86721 14.7666 4.64363 14.2186 4.4801L13.5513 2.27344C13.5231 2.19211 13.4697 2.12183 13.399 2.07272C13.3282 2.0236 13.2437 1.99817 13.1576 2.0001H10.902C10.8154 2.00051 10.7311 2.02853 10.6615 2.08008C10.5919 2.13164 10.5406 2.20405 10.515 2.28677L9.84767 4.48677C9.29514 4.64942 8.76245 4.87302 8.25945 5.15344L6.25749 4.07344C6.18016 4.03241 6.09165 4.01739 6.0051 4.0306C5.91855 4.04381 5.83857 4.08455 5.77702 4.14677L4.15544 5.72677C4.09316 5.78825 4.05238 5.86815 4.03916 5.95462C4.02593 6.04109 4.04097 6.12951 4.08203 6.20677L5.16309 8.20677C4.88285 8.70716 4.65905 9.23707 4.49577 9.78677L2.28695 10.4534C2.20415 10.479 2.13167 10.5303 2.08006 10.5998C2.02845 10.6693 2.0004 10.7535 2 10.8401V13.0934C2.0004 13.18 2.02845 13.2642 2.08006 13.3337C2.13167 13.4033 2.20415 13.4546 2.28695 13.4801L4.50912 14.1468C4.67418 14.6873 4.89795 15.2082 5.17644 15.7001L4.08203 17.7934C4.04097 17.8707 4.02593 17.9591 4.03916 18.0456C4.05238 18.132 4.09316 18.212 4.15544 18.2734L5.75033 19.8668C5.81187 19.929 5.89186 19.9697 5.97841 19.9829C6.06496 19.9961 6.15347 19.9811 6.2308 19.9401L8.29282 18.8401C8.7806 19.1031 9.29514 19.3131 9.82765 19.4668L10.495 21.7134C10.5205 21.7962 10.5719 21.8686 10.6415 21.9201C10.7111 21.9717 10.7954 21.9997 10.882 22.0001H13.1376C13.2242 21.9997 13.3085 21.9717 13.3781 21.9201C13.4477 21.8686 13.499 21.7962 13.5246 21.7134L14.1919 19.4601C14.7199 19.3057 15.2299 19.0956 15.7134 18.8334L17.7888 19.9401C17.8661 19.9811 17.9546 19.9961 18.0412 19.9829C18.1277 19.9697 18.2077 19.929 18.2692 19.8668L19.8641 18.2734C19.9264 18.212 19.9672 18.132 19.9804 18.0456C19.9936 17.9591 19.9786 17.8707 19.9375 17.7934L18.8298 15.7268C19.0949 15.2419 19.3075 14.7301 19.4637 14.2001L21.7126 13.5334C21.7954 13.5079 21.8679 13.4566 21.9195 13.3871C21.9711 13.3175 21.9991 13.2333 21.9995 13.1468V10.8734C22.0035 10.7905 21.9819 10.7084 21.9378 10.6381C21.8937 10.5678 21.829 10.5127 21.7526 10.4801ZM12.0298 15.6668C11.3039 15.6668 10.5943 15.4517 9.99072 15.0488C9.38715 14.6459 8.91672 14.0733 8.63893 13.4033C8.36114 12.7333 8.28845 11.996 8.43007 11.2848C8.57169 10.5735 8.92125 9.92017 9.43454 9.40738C9.94783 8.89458 10.6018 8.54537 11.3138 8.40389C12.0257 8.26241 12.7637 8.33502 13.4343 8.61254C14.105 8.89007 14.6782 9.36003 15.0815 9.96301C15.4848 10.566 15.7001 11.2749 15.7001 12.0001C15.7001 12.9726 15.3134 13.9052 14.6251 14.5928C13.9368 15.2805 13.0032 15.6668 12.0298 15.6668Z" fill="white"/>
</svg>
