<svg width="24" height="24" viewBox="0 0 24 24" fill="none" xmlns="http://www.w3.org/2000/svg">
<path d="M22.0476 11.0434H4.25135L7.03113 8.26337C7.40315 7.89157 7.40315 7.28845 7.03113 6.91671C6.65912 6.54469 6.05599 6.54469 5.68453 6.91671L1.27901 11.3223C0.906996 11.6941 0.906996 12.2973 1.27901 12.669L5.68453 17.0749C5.87048 17.261 6.11418 17.3538 6.35783 17.3538C6.60148 17.3538 6.84518 17.261 7.03113 17.0749C7.40315 16.7031 7.40315 16.1 7.03113 15.7283L4.25135 12.948H22.0476C22.5735 12.948 23 12.5216 23 11.9957C23 11.4698 22.5736 11.0434 22.0476 11.0434Z" fill="#ECEBF1"/>
</svg>
