<svg width="26" height="27" viewBox="0 0 26 27" fill="none" xmlns="http://www.w3.org/2000/svg">
<path d="M22.8365 8.08299C22.6493 7.75866 22.3813 7.48838 22.0585 7.29852C21.7357 7.10866 21.3693 7.00569 20.9948 6.99966H7.12817L6.49984 4.55133C6.43635 4.31498 6.29472 4.1071 6.098 3.96153C5.90129 3.81596 5.66108 3.74128 5.4165 3.74966H3.24984C2.96252 3.74966 2.68697 3.8638 2.4838 4.06696C2.28064 4.27012 2.1665 4.54567 2.1665 4.83299C2.1665 5.12031 2.28064 5.39586 2.4838 5.59902C2.68697 5.80219 2.96252 5.91633 3.24984 5.91633H4.59317L7.58317 17.0313C7.64665 17.2677 7.78829 17.4756 7.985 17.6211C8.18172 17.7667 8.42193 17.8414 8.6665 17.833H18.4165C18.6166 17.8324 18.8125 17.7764 18.9827 17.6712C19.1529 17.5661 19.2906 17.4158 19.3807 17.2372L22.934 10.1305C23.088 9.80768 23.1597 9.45175 23.1427 9.09448C23.1257 8.73721 23.0205 8.38971 22.8365 8.08299ZM17.7448 15.6663H9.48984L7.724 9.16633H20.9948L17.7448 15.6663Z" fill="#67666C"/>
<path d="M8.125 23.25C9.02246 23.25 9.75 22.5225 9.75 21.625C9.75 20.7275 9.02246 20 8.125 20C7.22754 20 6.5 20.7275 6.5 21.625C6.5 22.5225 7.22754 23.25 8.125 23.25Z" fill="#67666C"/>
<path d="M18.958 23.25C19.8555 23.25 20.583 22.5225 20.583 21.625C20.583 20.7275 19.8555 20 18.958 20C18.0605 20 17.333 20.7275 17.333 21.625C17.333 22.5225 18.0605 23.25 18.958 23.25Z" fill="#67666C"/>
</svg>
