<svg width="26" height="27" viewBox="0 0 26 27" fill="none" xmlns="http://www.w3.org/2000/svg">
<path fill-rule="evenodd" clip-rule="evenodd" d="M6.73037 13.3726H2.16606C1.92397 13.3726 1.69179 13.4925 1.52061 13.7059C1.34942 13.9194 1.25325 14.2088 1.25325 14.5106C1.25325 14.8125 1.34942 15.1019 1.52061 15.3154C1.69179 15.5288 1.92397 15.6487 2.16606 15.6487H6.73037C6.97246 15.6487 7.20464 15.5288 7.37582 15.3154C7.547 15.1019 7.64317 14.8125 7.64317 14.5106C7.64317 14.2088 7.547 13.9194 7.37582 13.7059C7.20464 13.4925 6.97246 13.3726 6.73037 13.3726ZM10.2156 18.8071H2.16606C1.92397 18.8071 1.69179 18.927 1.52061 19.1405C1.34942 19.3539 1.25325 19.6433 1.25325 19.9452C1.25325 20.247 1.34942 20.5365 1.52061 20.7499C1.69179 20.9633 1.92397 21.0832 2.16606 21.0832H10.2156C10.4577 21.0832 10.6899 20.9633 10.8611 20.7499C11.0322 20.5365 11.1284 20.247 11.1284 19.9452C11.1284 19.6433 11.0322 19.3539 10.8611 19.1405C10.6899 18.927 10.4577 18.8071 10.2156 18.8071ZM7.64317 8.28027H2.16606C1.92397 8.28027 1.69179 8.40017 1.52061 8.6136C1.34942 8.82702 1.25325 9.11649 1.25325 9.41831C1.25325 9.72014 1.34942 10.0096 1.52061 10.223C1.69179 10.4365 1.92397 10.5564 2.16606 10.5564H7.64317C7.88526 10.5564 8.11744 10.4365 8.28862 10.223C8.45981 10.0096 8.55598 9.72014 8.55598 9.41831C8.55598 9.11649 8.45981 8.82702 8.28862 8.6136C8.11744 8.40017 7.88526 8.28027 7.64317 8.28027Z" fill="#67666C"/>
<path d="M23.7155 19.6696L20.5229 16.477C21.2916 15.4538 21.7065 14.2083 21.7051 12.9285C21.7051 9.65954 19.0456 7 15.7766 7C12.5077 7 9.84814 9.65954 9.84814 12.9285C9.84814 16.1974 12.5077 18.857 15.7766 18.857C17.0564 18.8584 18.3019 18.4434 19.3252 17.6748L22.5178 20.8674C22.6794 21.0118 22.8901 21.089 23.1068 21.0829C23.3235 21.0768 23.5296 20.9881 23.6829 20.8348C23.8362 20.6815 23.925 20.4754 23.931 20.2587C23.9371 20.042 23.86 19.8312 23.7155 19.6696ZM11.542 12.9285C11.542 12.0909 11.7904 11.2722 12.2557 10.5758C12.721 9.87946 13.3823 9.3367 14.1561 9.01619C14.9299 8.69568 15.7813 8.61182 16.6028 8.77522C17.4242 8.93861 18.1787 9.34192 18.771 9.93414C19.3632 10.5264 19.7665 11.2809 19.9299 12.1023C20.0933 12.9238 20.0094 13.7752 19.6889 14.549C19.3684 15.3228 18.8256 15.9841 18.1293 16.4494C17.4329 16.9147 16.6142 17.1631 15.7766 17.1631C14.6539 17.1618 13.5776 16.7152 12.7838 15.9213C11.9899 15.1275 11.5433 14.0512 11.542 12.9285Z" fill="#67666C"/>
</svg>
