<svg width="26" height="27" viewBox="0 0 26 27" fill="none" xmlns="http://www.w3.org/2000/svg">
<path fill-rule="evenodd" clip-rule="evenodd" d="M12.7948 14.7943C16.1437 14.7943 18.8585 12.0795 18.8585 8.73065C18.8585 5.38179 16.1437 2.66699 12.7948 2.66699C9.44593 2.66699 6.73113 5.38179 6.73113 8.73065C6.73113 12.0795 9.44593 14.7943 12.7948 14.7943ZM12.7948 12.9146C10.4841 12.9146 8.61087 11.0414 8.61087 8.73065C8.61087 6.41993 10.4841 4.54673 12.7948 4.54673C15.1055 4.54673 16.9787 6.41993 16.9787 8.73065C16.9787 11.0414 15.1055 12.9146 12.7948 12.9146ZM23.3008 22.6701C23.5264 23.2037 23.1619 23.7755 22.5917 23.8782C22.0859 23.9694 21.6016 23.654 21.3996 23.1814C20.835 21.8604 19.8246 20.6898 18.4755 19.8103C16.8407 18.7445 14.8078 18.1708 12.7176 18.1853C10.6274 18.1998 8.60673 18.8016 6.99423 19.8898C5.66629 20.7861 4.6816 21.9674 4.1437 23.2926C3.9492 23.7718 3.46691 24.0978 2.95671 24.0133C2.38661 23.9188 2.01346 23.3553 2.22775 22.8187C2.87987 21.1855 4.08746 19.7293 5.72093 18.6269C7.68739 17.2997 10.1516 16.5658 12.7007 16.5481C15.2497 16.5305 17.7288 17.2301 19.7224 18.5299C21.3776 19.6089 22.6148 21.0472 23.3008 22.6701Z" fill="#67666C"/>
</svg>
