<svg width="26" height="27" viewBox="0 0 26 27" fill="none" xmlns="http://www.w3.org/2000/svg">
<path d="M12.401 3.95542C12.5722 3.82228 12.7828 3.75 12.9997 3.75C13.2165 3.75 13.4271 3.82228 13.5983 3.95542L21.6203 10.1952C21.9721 10.4689 22.2567 10.8193 22.4524 11.2198C22.6481 11.6203 22.7496 12.0602 22.7493 12.5059V21.3001C22.7493 21.8172 22.5439 22.3132 22.1782 22.6789C21.8125 23.0446 21.3165 23.25 20.7994 23.25H16.8995C16.3824 23.25 15.8864 23.0446 15.5207 22.6789C15.155 22.3132 14.9496 21.8172 14.9496 21.3001V15.4503H11.0497V21.3001C11.0497 21.8172 10.8443 22.3132 10.4786 22.6789C10.1129 23.0446 9.61695 23.25 9.0998 23.25H5.19993C4.68278 23.25 4.18681 23.0446 3.82112 22.6789C3.45544 22.3132 3.25 21.8172 3.25 21.3001V12.5059C3.25 11.6011 3.66729 10.7509 4.38096 10.1952L12.401 3.95542ZM12.9997 5.95995L5.57627 11.7337C5.45874 11.8251 5.36371 11.9423 5.29848 12.0761C5.23324 12.21 5.19953 12.357 5.19993 12.5059V21.3001H9.0998V15.4503C9.0998 14.9331 9.30524 14.4371 9.67092 14.0715C10.0366 13.7058 10.5326 13.5003 11.0497 13.5003H14.9496C15.4667 13.5003 15.9627 13.7058 16.3284 14.0715C16.6941 14.4371 16.8995 14.9331 16.8995 15.4503V21.3001H20.7994V12.5059C20.7998 12.357 20.7661 12.21 20.7008 12.0761C20.6356 11.9423 20.5406 11.8251 20.4231 11.7337L12.9997 5.9619V5.95995Z" fill="#67666C"/>
</svg>
