<svg width="20" height="20" viewBox="0 0 20 20" fill="none" xmlns="http://www.w3.org/2000/svg">
<path d="M16.3166 3.7581C16.6334 3.48243 17.055 3.33003 17.4924 3.33305C17.9298 3.33608 18.3488 3.49429 18.661 3.77432C18.9732 4.05434 19.1542 4.43426 19.1658 4.83392C19.1773 5.23358 19.0186 5.62172 18.723 5.91643L9.74955 16.1736C9.59525 16.3255 9.40902 16.4474 9.20199 16.532C8.99497 16.6166 8.7714 16.6622 8.54466 16.6661C8.31792 16.6699 8.09266 16.6319 7.88235 16.5544C7.67204 16.4768 7.481 16.3613 7.32065 16.2147L1.36986 10.7757C1.20414 10.6346 1.07122 10.4644 0.979028 10.2753C0.886838 10.0862 0.837266 9.88204 0.83327 9.67504C0.829274 9.46804 0.870936 9.26243 0.95577 9.07047C1.0406 8.8785 1.16687 8.70412 1.32704 8.55773C1.48721 8.41133 1.678 8.29593 1.88803 8.21839C2.09806 8.14085 2.32302 8.10277 2.5495 8.10643C2.77598 8.11008 2.99933 8.15539 3.20623 8.23965C3.41314 8.32391 3.59935 8.4454 3.75377 8.59686L8.46313 12.8991L16.2738 3.80332C16.2879 3.7875 16.3029 3.7724 16.3188 3.7581H16.3166Z" fill="white"/>
</svg>
