<svg width="20" height="20" viewBox="0 0 20 20" fill="none" xmlns="http://www.w3.org/2000/svg">
<path fill-rule="evenodd" clip-rule="evenodd" d="M10.0081 3.33301C9.59524 3.33301 9.26177 3.66647 9.26177 4.07934L9.25648 9.2507H4.07982C3.66696 9.2507 3.3335 9.58417 3.3335 9.99703C3.3335 10.4099 3.66696 10.7434 4.07982 10.7434H9.25648V15.92C9.25648 16.3329 9.58995 16.6663 10.0028 16.6663C10.4157 16.6663 10.7491 16.3329 10.7491 15.92V10.7434L15.9258 10.7434C16.3387 10.7434 16.6721 10.4099 16.6721 9.99703C16.6721 9.58417 16.3387 9.2507 15.9258 9.2507H10.7491V4.07404C10.7491 3.67177 10.4104 3.33301 10.0081 3.33301Z" fill="white"/>
</svg>
