<svg width="24" height="24" viewBox="0 0 24 24" fill="none" xmlns="http://www.w3.org/2000/svg">
<g opacity="0.6">
<path fill-rule="evenodd" clip-rule="evenodd" d="M11.999 14.1053C13.4379 14.1053 14.5995 12.9768 14.5995 11.5789V6.52632C14.5995 5.12842 13.4379 4 11.999 4C10.5601 4 9.39861 5.12842 9.39861 6.52632V11.5789C9.39861 12.9768 10.5601 14.1053 11.999 14.1053ZM17.1219 11.5789C16.6972 11.5789 16.3418 11.8821 16.2724 12.2947C15.917 14.2737 14.1401 15.7895 11.9991 15.7895C9.85806 15.7895 8.08111 14.2737 7.72571 12.2947C7.65637 11.8821 7.30098 11.5789 6.87624 11.5789C6.34749 11.5789 5.93142 12.0337 6.00944 12.5389C6.43417 15.0653 8.51451 17.0442 11.1323 17.4063V19.1579C11.1323 19.6211 11.5223 20 11.9991 20C12.4758 20 12.8659 19.6211 12.8659 19.1579V17.4063C15.4836 17.0442 17.564 15.0653 17.9887 12.5389C18.0754 12.0337 17.6507 11.5789 17.1219 11.5789Z" fill="#67666C"/>
</g>
</svg>
