<svg width="24" height="24" viewBox="0 0 24 24" fill="none" xmlns="http://www.w3.org/2000/svg">
<path d="M18.7854 17.5947L15.6117 14.421C16.3758 13.4038 16.7883 12.1657 16.7869 10.8934C16.7869 7.64382 14.1431 5 10.8934 5C7.64382 5 5 7.64382 5 10.8934C5 14.1431 7.64382 16.7869 10.8934 16.7869C12.1657 16.7883 13.4038 16.3758 14.421 15.6117L17.5947 18.7854C17.7554 18.929 17.9649 19.0057 18.1803 18.9997C18.3957 18.9936 18.6006 18.9054 18.753 18.753C18.9054 18.6006 18.9936 18.3957 18.9997 18.1803C19.0057 17.9649 18.929 17.7554 18.7854 17.5947ZM6.68384 10.8934C6.68384 10.0609 6.93073 9.24698 7.39329 8.55471C7.85584 7.86245 8.51329 7.32289 9.2825 7.00428C10.0517 6.68566 10.8981 6.6023 11.7147 6.76473C12.5313 6.92715 13.2814 7.32808 13.8701 7.9168C14.4588 8.50553 14.8597 9.25561 15.0222 10.0722C15.1846 10.8888 15.1012 11.7352 14.7826 12.5044C14.464 13.2736 13.9244 13.931 13.2322 14.3936C12.5399 14.8562 11.726 15.103 10.8934 15.103C9.7774 15.1017 8.70745 14.6578 7.91828 13.8686C7.12912 13.0794 6.68518 12.0095 6.68384 10.8934Z" fill="#67666C"/>
</svg>
